<svg fill="none" height="28" viewBox="0 0 29 28" width="29" xmlns="http://www.w3.org/2000/svg"><path clip-rule="evenodd" d="m3.80091.198083c-.27343.0875-.76562.339063-1.09375.56875-.32812.229688-.77656.689067-1.01718 1.017187-.22969.32813-.49219.84219-.57969 1.14844-.131251.47031-.153126 2.13281-.131251 11.32034l.032811 10.7734c.50313 1.0172.86406 1.5313 1.1375 1.8047s.79844.6453 1.15938.8203l.65625.3281h21.98442c1.0171-.5031 1.5312-.875 1.8046-1.1484.2735-.2734.6454-.7875.8204-1.1484l.3281-.6563v-21.98437c-.5031-1.01718-.875-1.54218-1.1485-1.81562-.2734-.273439-.7875-.634377-1.1484-.820314l-.6562-.3171879c-19.8188-.0328125-21.7438-.0109375-22.14849.1093749zm3.39063 3.434377c.54687-.175 1.25781-.19688 7.74376-.19688 6.5734-.01093 7.175 0 7.7656.18594.3391.10938.8531.35 1.1485.54688.2843.19687.689.57968.8968.875.2078.28437.4813.83125.6016 1.225.2187.67812.2187.98437.2187 7.7984 0 6.5078-.0109 7.1313-.1968 7.711-.1094.339-.35.8531-.5469 1.1484-.1969.2844-.5797.6891-.8641.8969-.2953.2078-.8422.4812-1.2359.6015-.6781.2188-.9844.2188-7.7656.2188-6.78129 0-7.08754 0-7.76566-.2188-.39375-.1203-.94063-.3937-1.225-.6015-.29531-.2078-.67813-.6125-.875-.8969-.19688-.2953-.4375-.8094-.54688-1.1484-.18593-.5797-.19687-1.2032-.19687-7.711 0-6.81403 0-7.12028.21875-7.7984.12031-.39375.39375-.94063.60156-1.225.20781-.29532.6125-.67813.90781-.875.28438-.19688.7875-.4375 1.11563-.53594zm.16406 1.58594c-.29531.14218-.65625.37187-.7875.51406s-.33906.48125-.45937.75469c-.21875.48125-.22969.67812-.22969 7.54685 0 6.8688.01094 7.0656.22969 7.5469.12031.2734.32812.6125.45937.7547s.49219.3719.7875.514l.54688.2625h14.10942c.8531-.4046 1.2031-.6343 1.3343-.7765.1313-.1422.3391-.4813.4594-.7547.2188-.4813.2297-.6781.2297-7.5469v-7.05467c-.4047-.84218-.6344-1.20312-.7766-1.33437s-.4812-.33906-.7547-.45938c-.4812-.21875-.6781-.22968-7.5468-.22968h-7.05472zm12.6438 1.67343c.2625-.13125.514-.175.864-.14218.2735.03281.6125.15312.7656.2625.1532.10937.361.37187.4704.57968.1421.2625.1859.525.1421.86407-.0328.27343-.1421.62343-.2625.76562-.1093.15313-.3718.37188-.5796.47031-.2625.14219-.5141.18594-.8641.15313-.2734-.03281-.6125-.15313-.7656-.2625-.1532-.12031-.361-.37188-.4703-.57969-.1422-.2625-.186-.525-.1422-.875.0328-.2625.1422-.6125.2625-.76562.1093-.14219.3718-.36094.5797-.47032zm-6.4094 1.64063c.3609-.0875.9515-.16406 1.3125-.175.3609 0 .9734.07656 1.3672.16406.3937.09844 1.0062.32813 1.3672.51406.3609.19688.9515.64532 1.3125 1.00622.3609.361.8203.9516 1.0062 1.3125.1969.361.4266.9844.5141 1.3672.0984.3938.175.9844.175 1.3125 0 .3391-.0766.9297-.175 1.3125-.0875.3938-.3172 1.0063-.5141 1.3672-.1859.3609-.6453.9625-1.0062 1.3234-.361.361-.9516.8094-1.3125 1.0063-.361.1859-.9735.4156-1.3672.5141-.3938.0875-.9844.164-1.3125.164-.3282 0-.9188-.0765-1.3125-.164-.3938-.0985-1.0063-.3282-1.3672-.5141-.361-.1969-.9516-.6453-1.3125-1.0063-.361-.3609-.8203-.9625-1.00627-1.3234-.19688-.3609-.42657-.9734-.51407-1.3672-.09843-.3828-.175-.9734-.175-1.3125 0-.3281.07657-.9187.175-1.3125.0875-.3828.31719-1.0062.51407-1.3672.18597-.3609.64527-.9515 1.00627-1.3125.3609-.3609.9515-.80934 1.3125-1.00622.3609-.18593.9515-.41562 1.3125-.50312zm.164 1.54214c-.3281.1094-.7765.3063-.9843.4266-.2078.1313-.6235.4922-.9078.8203-.2954.3172-.6344.8531-.7657 1.1813-.175.4484-.2297.8422-.2297 1.5312 0 .7219.0547 1.0828.2625 1.586.186.4703.4485.8531.9188 1.3234.4812.4812.8531.7437 1.3234.9297.5032.1969.8641.2515 1.586.2515.7218 0 1.0828-.0546 1.5859-.2515.4703-.186.8422-.4485 1.3234-.9297.4704-.4703.7329-.8531.9188-1.3234.2078-.5032.2625-.8641.2625-1.586 0-.7109-.0547-1.0719-.2625-1.5859-.1859-.4594-.4484-.8422-.9188-1.3125-.4921-.4922-.8421-.7438-1.3234-.9188-.3719-.1422-.9844-.2734-1.4219-.29528-.5359-.03281-.9406.02188-1.3672.15308z" fill="#fff" fill-rule="evenodd"/></svg>