<svg fill="none" height="28" viewBox="0 0 28 28" width="28" xmlns="http://www.w3.org/2000/svg"><path clip-rule="evenodd" d="m2.08997.203731c-.18594.076563-.525.251563-.76562.404688-.22969.153125-.557816.470311-.710941.710941-.164062.24062-.360937.63437-.426562.875-.0984377.32812-.1203126 3.45625-.0984376 12.08594.0328126 11.375.0328126 11.6594.2515626 12.0859.120312.2407.39375.6125.601562.8203.207816.2079.579686.4813.820316.6016.42656.2188.67812.2188 12.30465.2188 11.6266 0 11.8782 0 12.3047-.2188.2406-.1203.6125-.3937.8203-.6016.2078-.2078.4813-.5796.6016-.8203.2187-.4265.2187-.6781.2187-12.3047 0-11.62652 0-11.87808-.2187-12.30464-.1203-.24063-.3938-.6125-.6016-.820316-.2078-.207813-.5797-.48125-.8203-.601563-.4265-.21875-.7-.21875-12.1953-.2406245-8.81562-.0109375-11.8453.0109375-12.08593.1093745zm12.53433 3.904689h3.2157l.1422.73281c.0765.41563.2515.98438.3937 1.29063.1531.29531.5031.82031.8094 1.14843.2953.33907.8203.75469 1.1812.95157.35.18593.8422.39375 1.0828.45937.2407.05469.6235.14219 1.2579.22969v3.33598l-.7329-.0766c-.4156-.0438-1.039-.1531-1.4-.2516-.3609-.0984-.9515-.3172-1.3125-.4922-.3609-.175-.8203-.4156-1.3671-.7656v3.861c0 3.5328-.011 3.9265-.2188 4.725-.1312.4812-.3828 1.1484-.5687 1.4765-.1969.3281-.6891.9516-1.1157 1.3781-.5177.5178-1.0135.8896-1.4875 1.1157-.3937.1859-1.0062.4156-1.3672.514-.3609.0875-1.0281.1641-1.4765.1641-.4485 0-1.1156-.0766-1.4766-.1641-.36092-.0984-.97342-.3281-1.36717-.514-.48125-.2297-.97343-.6016-1.54218-1.1703-.56875-.5688-.94063-1.061-1.17032-1.5422-.18593-.3938-.41562-1.0063-.51406-1.3672-.0875-.361-.16406-1.0281-.16406-1.4766 0-.4484.07656-1.1156.16406-1.4765.09844-.361.32813-.9735.51406-1.3672.22605-.474.59792-.9698 1.11563-1.4875.42656-.4266 1.05-.9188 1.37812-1.1157.32813-.1859.99532-.4375 1.47652-.5687.4813-.1203 1.2032-.2188 2.3516-.2188v3.336l-.6891.0109c-.452.0073-.8604.0912-1.225.2516-.2953.1312-.68902.3719-.85308.5359-.175.1641-.4375.536-.60156.8422-.21875.4266-.27344.7-.27344 1.2578 0 .536.06563.8422.27344 1.2578.15312.2953.45937.711.67812.8969.21875.1969.57972.4375.80942.5359.2296.1094.7109.186 1.1156.186.5578 0 .8312-.0547 1.2578-.2735.3062-.164.6781-.4265.8422-.6015.164-.1641.4047-.5578.7984-1.4l.0328-7.0875z" fill="#fff" fill-rule="evenodd"/></svg>