<svg version="1.2" xmlns="http://www.w3.org/2000/svg" viewBox="0 0 128 128" width="32" height="32"><style>.a{fill:#fff}</style><path fill-rule="evenodd" class="a" d="m20 24.3c-2.5 0.7-6.1 2.2-8 3.4-1.9 1.1-4.7 3.7-6.3 5.7-1.5 2-3.4 5.5-4.2 7.8-1.2 3.4-1.5 9.3-1.5 27.8 0 18 0.3 24.6 1.4 28 0.9 2.5 3.4 6.4 5.8 9 2.4 2.4 6.3 5.3 8.8 6.5 4.3 1.9 6.3 2 48 2 41.8 0 43.7-0.1 48-2.1 2.5-1.1 6.1-3.6 8-5.5 1.9-1.9 4.4-5.2 5.5-7.4 1.8-3.6 2-6.3 2.3-29 0.2-20.8 0-25.8-1.3-29.5-0.9-2.5-3.1-6.2-4.8-8.4-1.8-2.1-5.7-5-8.7-6.5l-5.5-2.6c-71.9-0.4-84.2-0.1-87.5 0.8zm27 44.7c0-11.3 0.4-18 1-18 0.5 0 8.9 4.1 18.5 9 9.6 4.9 17.5 9.2 17.5 9.5 0 0.3-7.9 4.3-17.5 9-9.6 4.7-18 8.5-18.5 8.5-0.6 0-1-6.7-1-18z"/></svg>