<svg width="63" height="21" viewBox="0 0 63 21" fill="none" xmlns="http://www.w3.org/2000/svg">
<path fill-rule="evenodd" clip-rule="evenodd" d="M6.2323 9.82554L0.957153 19.6001C18.4117 19.7552 23.6481 19.6777 23.8032 19.5225C23.9972 19.3286 26.402 15.0619 29.1172 9.98069L34.1208 0.749177L34.3147 19.794C37.1462 19.794 37.4178 19.6777 37.4178 19.0183C37.4178 18.3201 37.4953 18.3201 37.9996 18.8243C38.3099 19.1346 39.2408 19.6001 40.0553 19.8328C40.8311 20.0655 42.1111 20.1819 42.8481 20.0655C43.585 19.9104 44.6711 19.4837 45.2917 19.0183C45.8735 18.5916 46.7268 17.5055 47.1535 16.6134C47.8517 15.2558 47.9681 14.4025 47.8517 11.9589C47.7353 9.70918 47.5026 8.73948 46.882 7.88615C46.4553 7.30433 45.4856 6.41221 44.7487 5.90797C43.8565 5.32615 42.8481 5.05463 41.6844 5.05463C40.6759 5.05463 39.5123 5.32615 38.9693 5.71403C38.4262 6.06312 37.8832 6.56736 37.7281 6.7613C37.5729 6.99403 37.4178 5.55887 37.4178 3.61948V0.012207H11.5075L6.2323 9.82554ZM38.5814 8.85584C39.2408 8.00251 39.745 7.80857 40.9475 7.80857C42.0335 7.80857 42.7317 8.0413 43.4299 8.77827C43.9729 9.28251 44.5159 10.3686 44.6323 11.1831C44.7875 11.9977 44.7487 13.2389 44.5935 14.0146C44.4384 14.7516 43.8178 15.8377 43.2359 16.4195C42.6153 17.0401 41.7232 17.5055 41.1414 17.5055C40.5984 17.5055 39.5899 17.0013 38.9305 16.4195C38.0384 15.6049 37.6893 14.9068 37.5341 13.6268C37.4178 12.6571 37.4178 11.4158 37.5341 10.9116C37.6505 10.3686 38.1159 9.43766 38.5814 8.85584ZM52.6226 5.71403C51.9244 6.06312 51.0323 6.80009 50.6444 7.34312C50.2565 7.92493 49.7523 8.97221 49.4808 9.74797C49.2481 10.4849 49.0541 11.8813 49.0541 12.851C49.0541 13.7819 49.4032 15.2558 49.7911 16.148C50.179 17.0013 51.0323 18.1649 51.6917 18.7468C52.5062 19.4449 53.5535 19.9104 54.7947 20.0268C56.0359 20.2207 57.122 20.0655 58.1693 19.6777C59.0226 19.3286 60.0311 18.7468 60.3802 18.3589C60.7293 18.0098 61.3111 17.0401 61.6602 16.2255C61.9705 15.411 62.1644 14.5965 62.0481 14.3637C61.9317 14.1698 61.2335 14.0146 60.4965 14.0146C59.3329 14.0146 59.0614 14.1698 58.5572 15.3722C58.2468 16.1092 57.5487 16.8849 57.0056 17.1177C56.4626 17.3116 55.7644 17.5055 55.4541 17.5055C55.1438 17.5055 54.4456 17.0789 53.9026 16.6134C53.3596 16.148 52.739 15.0619 52.545 14.1698C52.3511 13.2389 52.3511 11.9201 52.5838 10.7952C52.8165 9.59281 53.2432 8.73948 53.825 8.3516C54.2905 8.0413 55.1438 7.76978 55.7644 7.76978C56.3462 7.76978 57.1608 7.96372 57.5875 8.15766C58.0141 8.39039 58.5572 9.011 58.7511 9.51524C59.0614 10.291 59.4105 10.4849 60.4965 10.4849C61.2335 10.4849 61.9317 10.3298 62.0481 10.0971C62.1644 9.90312 61.9317 9.08857 61.5826 8.27403C61.1947 7.49827 60.2638 6.41221 59.5268 5.94675C58.5184 5.28736 57.6262 5.05463 56.0359 5.05463C54.8723 5.09342 53.3208 5.36493 52.6226 5.71403Z" fill="white"/>
</svg>
